<?xml version="1.0" encoding="utf-8"?>
<!DOCTYPE svg PUBLIC "-//W3C//DTD SVG 1.1//EN" "http://www.w3.org/Graphics/SVG/1.1/DTD/svg11.dtd">
<svg version="1.1" xmlns="http://www.w3.org/2000/svg" xmlns:xlink="http://www.w3.org/1999/xlink" x="0px" y="0px" width="1200px" height="1200px" viewBox="0 0 12000 12000" preserveAspectRatio="xMidYMid meet">
<g id="layer101">
 <path fill="#4f4f4f" d="M4587 9914 c-182 -44 -314 -174 -362 -355 -58 -216 -3 -519 129 -718 98 -147 246 -256 411 -302 101 -28 269 -31 362 -6 187 49 308 177 359 377 13 51 15 95 11 205 -6 171 -28 261 -96 400 -105 211 -261 341 -475 395 -94 24 -250 26 -339 4z m339 -253 c175 -82 295 -305 298 -556 1 -150 -17 -209 -87 -279 -64 -64 -114 -81 -224 -74 -123 7 -225 68 -303 179 -91 129 -134 283 -128 449 5 123 27 186 88 245 84 82 227 96 356 36z"/>
 <path fill="#4f4f4f" d="M6890 9916 c-88 -23 -168 -91 -213 -181 -28 -56 -30 -54 -47 50 -6 39 -13 82 -16 98 l-6 27 -134 0 c-74 0 -134 -2 -134 -5 0 -3 68 -410 150 -905 83 -496 150 -905 150 -910 0 -6 58 -10 141 -10 l141 0 -6 28 c-14 65 -105 636 -103 639 2 1 19 -18 37 -43 105 -139 290 -210 478 -184 281 39 424 267 391 625 -43 465 -332 787 -703 784 -45 0 -101 -6 -126 -13z m265 -260 c80 -36 156 -118 204 -219 61 -126 75 -192 76 -342 0 -115 -3 -136 -23 -180 -28 -60 -73 -109 -127 -138 -32 -18 -57 -22 -130 -22 -82 0 -97 3 -156 32 -150 74 -250 245 -279 477 -12 99 0 203 31 277 23 52 82 113 127 130 81 32 188 26 277 -15z"/>
 <path fill="#4f4f4f" d="M8306 9915 c-140 -36 -265 -133 -320 -249 -98 -207 -65 -538 80 -786 53 -92 200 -236 289 -282 196 -102 452 -111 618 -20 104 56 180 157 212 280 19 77 21 228 4 352 l-12 90 -487 0 -487 0 -6 62 c-19 215 76 326 289 336 152 7 271 -43 343 -143 18 -25 35 -45 39 -45 36 0 242 46 242 54 0 26 -65 121 -118 174 -71 70 -162 124 -267 159 -67 22 -102 26 -220 29 -100 3 -157 -1 -199 -11z m632 -903 c-8 -142 -84 -235 -214 -262 -177 -37 -400 105 -468 298 l-15 42 351 0 351 0 -5 -78z"/>
 <path fill="#4f4f4f" d="M1550 5995 l0 -3925 140 0 140 0 0 3925 0 3925 -140 0 -140 0 0 -3925z"/>
 <path fill="#4f4f4f" d="M3583 9901 c-115 -39 -174 -106 -194 -218 -10 -53 -5 -96 60 -491 39 -238 71 -435 71 -437 0 -3 -44 -5 -98 -5 l-98 0 17 -107 c10 -60 18 -109 19 -110 0 -2 45 -3 99 -3 l99 0 11 -62 c6 -35 18 -109 27 -165 l17 -103 139 0 c76 0 138 1 138 3 0 1 -11 67 -25 147 -14 80 -25 153 -25 163 0 15 13 17 135 17 122 0 135 2 135 18 0 18 -16 127 -26 175 l-6 27 -139 0 c-136 0 -139 0 -144 23 -15 68 -125 751 -125 781 0 90 39 121 151 119 l77 -1 6 46 c3 26 7 76 8 112 l3 65 -45 12 c-71 18 -226 15 -287 -6z"/>
 <path fill="#4f4f4f" d="M3667 6914 c-182 -44 -314 -174 -362 -355 -58 -216 -3 -519 129 -718 98 -147 246 -256 411 -302 101 -28 269 -31 362 -6 187 49 308 177 359 377 13 51 15 95 11 205 -6 171 -28 261 -96 400 -105 211 -261 341 -475 395 -94 24 -250 26 -339 4z m339 -253 c175 -82 295 -305 298 -556 1 -150 -17 -209 -87 -279 -64 -64 -114 -81 -224 -74 -123 7 -225 68 -303 179 -91 129 -134 283 -128 449 5 123 27 186 88 245 84 82 227 96 356 36z"/>
 <path fill="#4f4f4f" d="M8297 6914 c-182 -44 -314 -174 -362 -355 -58 -216 -3 -519 129 -718 98 -147 246 -256 411 -302 101 -28 269 -31 362 -6 187 49 308 177 359 377 13 51 15 95 11 205 -6 171 -28 261 -96 400 -105 211 -261 341 -475 395 -94 24 -250 26 -339 4z m339 -253 c175 -82 295 -305 298 -556 1 -150 -17 -209 -87 -279 -64 -64 -114 -81 -224 -74 -123 7 -225 68 -303 179 -91 129 -134 283 -128 449 5 123 27 186 88 245 84 82 227 96 356 36z"/>
 <path fill="#4f4f4f" d="M9713 6901 c-115 -39 -174 -106 -194 -218 -10 -53 -5 -96 60 -491 39 -238 71 -435 71 -437 0 -3 -44 -5 -98 -5 l-98 0 17 -107 c10 -60 18 -109 19 -110 0 -2 45 -3 99 -3 l99 0 11 -62 c6 -35 18 -109 27 -165 l17 -103 139 0 c76 0 138 1 138 3 0 1 -11 67 -25 147 -14 80 -25 153 -25 163 0 15 13 17 135 17 122 0 135 2 135 18 0 18 -16 127 -26 175 l-6 27 -139 0 c-136 0 -139 0 -144 23 -15 68 -125 751 -125 781 0 90 39 121 151 119 l77 -1 6 46 c3 26 7 76 8 112 l3 65 -45 12 c-71 18 -226 15 -287 -6z"/>
 <path fill="#4f4f4f" d="M4751 6893 c0 -10 51 -319 112 -688 l113 -670 132 -3 c152 -3 140 -15 117 118 -8 47 -15 87 -15 89 0 2 18 -20 39 -51 45 -62 120 -118 201 -149 59 -23 234 -38 257 -22 9 7 7 37 -9 133 l-20 125 -122 0 c-112 0 -126 2 -183 29 -74 34 -154 113 -184 182 -17 40 -128 664 -155 872 l-7 52 -138 0 c-126 0 -139 -2 -138 -17z"/>
 <path fill="#4f4f4f" d="M6370 6905 c0 -9 220 -1329 225 -1352 5 -22 9 -23 135 -23 150 0 138 -12 115 120 -19 110 -20 109 13 64 65 -88 169 -157 282 -185 76 -19 222 -17 292 4 104 31 194 121 224 225 30 104 22 200 -60 689 -42 249 -76 455 -76 458 0 3 -63 5 -140 5 l-140 0 5 -22 c14 -63 145 -874 145 -902 0 -63 -28 -132 -69 -169 -50 -45 -100 -62 -181 -60 -137 2 -251 76 -315 206 -34 68 -40 100 -108 510 l-71 437 -138 0 c-76 0 -138 -2 -138 -5z"/>
 <path fill="#4f4f4f" d="M4587 3914 c-182 -44 -314 -174 -362 -355 -58 -216 -3 -519 129 -718 98 -147 246 -256 411 -302 101 -28 269 -31 362 -6 187 49 308 177 359 377 13 51 15 95 11 205 -6 171 -28 261 -96 400 -105 211 -261 341 -475 395 -94 24 -250 26 -339 4z m339 -253 c175 -82 295 -305 298 -556 1 -150 -17 -209 -87 -279 -64 -64 -114 -81 -224 -74 -123 7 -225 68 -303 179 -91 129 -134 283 -128 449 5 123 27 186 88 245 84 82 227 96 356 36z"/>
 <path fill="#4f4f4f" d="M6890 3916 c-88 -23 -168 -91 -213 -181 -28 -56 -30 -54 -47 50 -6 39 -13 82 -16 98 l-6 27 -134 0 c-74 0 -134 -2 -134 -5 0 -3 68 -410 150 -905 83 -496 150 -905 150 -910 0 -6 58 -10 141 -10 l141 0 -6 28 c-14 65 -105 636 -103 639 2 1 19 -18 37 -43 105 -139 290 -210 478 -184 281 39 424 267 391 625 -43 465 -332 787 -703 784 -45 0 -101 -6 -126 -13z m265 -260 c80 -36 156 -118 204 -219 61 -126 75 -192 76 -342 0 -115 -3 -136 -23 -180 -28 -60 -73 -109 -127 -138 -32 -18 -57 -22 -130 -22 -82 0 -97 3 -156 32 -150 74 -250 245 -279 477 -12 99 0 203 31 277 23 52 82 113 127 130 81 32 188 26 277 -15z"/>
 <path fill="#4f4f4f" d="M8306 3915 c-140 -36 -265 -133 -320 -249 -98 -207 -65 -538 80 -786 53 -92 200 -236 289 -282 196 -102 452 -111 618 -20 104 56 180 157 212 280 19 77 21 228 4 352 l-12 90 -487 0 -487 0 -6 62 c-19 215 76 326 289 336 152 7 271 -43 343 -143 18 -25 35 -45 39 -45 36 0 242 46 242 54 0 26 -65 121 -118 174 -71 70 -162 124 -267 159 -67 22 -102 26 -220 29 -100 3 -157 -1 -199 -11z m632 -903 c-8 -142 -84 -235 -214 -262 -177 -37 -400 105 -468 298 l-15 42 351 0 351 0 -5 -78z"/>
 <path fill="#4f4f4f" d="M3583 3901 c-115 -39 -174 -106 -194 -218 -10 -53 -5 -96 60 -491 39 -238 71 -435 71 -437 0 -3 -44 -5 -98 -5 l-98 0 17 -107 c10 -60 18 -109 19 -110 0 -2 45 -3 99 -3 l99 0 11 -62 c6 -35 18 -109 27 -165 l17 -103 139 0 c76 0 138 1 138 3 0 1 -11 67 -25 147 -14 80 -25 153 -25 163 0 15 13 17 135 17 122 0 135 2 135 18 0 18 -16 127 -26 175 l-6 27 -139 0 c-136 0 -139 0 -144 23 -15 68 -125 751 -125 781 0 90 39 121 151 119 l77 -1 6 46 c3 26 7 76 8 112 l3 65 -45 12 c-71 18 -226 15 -287 -6z"/>
 </g>
<g id="layer102">
 <path fill="#cccccc" d="M4587 9914 c-182 -44 -314 -174 -362 -355 -58 -216 -3 -519 129 -718 98 -147 246 -256 411 -302 101 -28 269 -31 362 -6 187 49 308 177 359 377 13 51 15 95 11 205 -6 171 -28 261 -96 400 -105 211 -261 341 -475 395 -94 24 -250 26 -339 4z m339 -253 c175 -82 295 -305 298 -556 1 -150 -17 -209 -87 -279 -64 -64 -114 -81 -224 -74 -123 7 -225 68 -303 179 -91 129 -134 283 -128 449 5 123 27 186 88 245 84 82 227 96 356 36z"/>
 <path fill="#cccccc" d="M6890 9916 c-88 -23 -168 -91 -213 -181 -28 -56 -30 -54 -47 50 -6 39 -13 82 -16 98 l-6 27 -134 0 c-74 0 -134 -2 -134 -5 0 -3 68 -410 150 -905 83 -496 150 -905 150 -910 0 -6 58 -10 141 -10 l141 0 -6 28 c-14 65 -105 636 -103 639 2 1 19 -18 37 -43 105 -139 290 -210 478 -184 281 39 424 267 391 625 -43 465 -332 787 -703 784 -45 0 -101 -6 -126 -13z m265 -260 c80 -36 156 -118 204 -219 61 -126 75 -192 76 -342 0 -115 -3 -136 -23 -180 -28 -60 -73 -109 -127 -138 -32 -18 -57 -22 -130 -22 -82 0 -97 3 -156 32 -150 74 -250 245 -279 477 -12 99 0 203 31 277 23 52 82 113 127 130 81 32 188 26 277 -15z"/>
 <path fill="#cccccc" d="M8306 9915 c-140 -36 -265 -133 -320 -249 -98 -207 -65 -538 80 -786 53 -92 200 -236 289 -282 196 -102 452 -111 618 -20 104 56 180 157 212 280 19 77 21 228 4 352 l-12 90 -487 0 -487 0 -6 62 c-19 215 76 326 289 336 152 7 271 -43 343 -143 18 -25 35 -45 39 -45 36 0 242 46 242 54 0 26 -65 121 -118 174 -71 70 -162 124 -267 159 -67 22 -102 26 -220 29 -100 3 -157 -1 -199 -11z m632 -903 c-8 -142 -84 -235 -214 -262 -177 -37 -400 105 -468 298 l-15 42 351 0 351 0 -5 -78z"/>
 <path fill="#cccccc" d="M3583 9901 c-115 -39 -174 -106 -194 -218 -10 -53 -5 -96 60 -491 39 -238 71 -435 71 -437 0 -3 -44 -5 -98 -5 l-98 0 17 -107 c10 -60 18 -109 19 -110 0 -2 45 -3 99 -3 l99 0 11 -62 c6 -35 18 -109 27 -165 l17 -103 139 0 c76 0 138 1 138 3 0 1 -11 67 -25 147 -14 80 -25 153 -25 163 0 15 13 17 135 17 122 0 135 2 135 18 0 18 -16 127 -26 175 l-6 27 -139 0 c-136 0 -139 0 -144 23 -15 68 -125 751 -125 781 0 90 39 121 151 119 l77 -1 6 46 c3 26 7 76 8 112 l3 65 -45 12 c-71 18 -226 15 -287 -6z"/>
 <path fill="#cccccc" d="M3667 6914 c-182 -44 -314 -174 -362 -355 -58 -216 -3 -519 129 -718 98 -147 246 -256 411 -302 101 -28 269 -31 362 -6 187 49 308 177 359 377 13 51 15 95 11 205 -6 171 -28 261 -96 400 -105 211 -261 341 -475 395 -94 24 -250 26 -339 4z m339 -253 c175 -82 295 -305 298 -556 1 -150 -17 -209 -87 -279 -64 -64 -114 -81 -224 -74 -123 7 -225 68 -303 179 -91 129 -134 283 -128 449 5 123 27 186 88 245 84 82 227 96 356 36z"/>
 <path fill="#cccccc" d="M8297 6914 c-182 -44 -314 -174 -362 -355 -58 -216 -3 -519 129 -718 98 -147 246 -256 411 -302 101 -28 269 -31 362 -6 187 49 308 177 359 377 13 51 15 95 11 205 -6 171 -28 261 -96 400 -105 211 -261 341 -475 395 -94 24 -250 26 -339 4z m339 -253 c175 -82 295 -305 298 -556 1 -150 -17 -209 -87 -279 -64 -64 -114 -81 -224 -74 -123 7 -225 68 -303 179 -91 129 -134 283 -128 449 5 123 27 186 88 245 84 82 227 96 356 36z"/>
 <path fill="#cccccc" d="M9713 6901 c-115 -39 -174 -106 -194 -218 -10 -53 -5 -96 60 -491 39 -238 71 -435 71 -437 0 -3 -44 -5 -98 -5 l-98 0 17 -107 c10 -60 18 -109 19 -110 0 -2 45 -3 99 -3 l99 0 11 -62 c6 -35 18 -109 27 -165 l17 -103 139 0 c76 0 138 1 138 3 0 1 -11 67 -25 147 -14 80 -25 153 -25 163 0 15 13 17 135 17 122 0 135 2 135 18 0 18 -16 127 -26 175 l-6 27 -139 0 c-136 0 -139 0 -144 23 -15 68 -125 751 -125 781 0 90 39 121 151 119 l77 -1 6 46 c3 26 7 76 8 112 l3 65 -45 12 c-71 18 -226 15 -287 -6z"/>
 <path fill="#cccccc" d="M4751 6893 c0 -10 51 -319 112 -688 l113 -670 132 -3 c152 -3 140 -15 117 118 -8 47 -15 87 -15 89 0 2 18 -20 39 -51 45 -62 120 -118 201 -149 59 -23 234 -38 257 -22 9 7 7 37 -9 133 l-20 125 -122 0 c-112 0 -126 2 -183 29 -74 34 -154 113 -184 182 -17 40 -128 664 -155 872 l-7 52 -138 0 c-126 0 -139 -2 -138 -17z"/>
 <path fill="#cccccc" d="M6370 6905 c0 -9 220 -1329 225 -1352 5 -22 9 -23 135 -23 150 0 138 -12 115 120 -19 110 -20 109 13 64 65 -88 169 -157 282 -185 76 -19 222 -17 292 4 104 31 194 121 224 225 30 104 22 200 -60 689 -42 249 -76 455 -76 458 0 3 -63 5 -140 5 l-140 0 5 -22 c14 -63 145 -874 145 -902 0 -63 -28 -132 -69 -169 -50 -45 -100 -62 -181 -60 -137 2 -251 76 -315 206 -34 68 -40 100 -108 510 l-71 437 -138 0 c-76 0 -138 -2 -138 -5z"/>
 <path fill="#cccccc" d="M4587 3914 c-182 -44 -314 -174 -362 -355 -58 -216 -3 -519 129 -718 98 -147 246 -256 411 -302 101 -28 269 -31 362 -6 187 49 308 177 359 377 13 51 15 95 11 205 -6 171 -28 261 -96 400 -105 211 -261 341 -475 395 -94 24 -250 26 -339 4z m339 -253 c175 -82 295 -305 298 -556 1 -150 -17 -209 -87 -279 -64 -64 -114 -81 -224 -74 -123 7 -225 68 -303 179 -91 129 -134 283 -128 449 5 123 27 186 88 245 84 82 227 96 356 36z"/>
 <path fill="#cccccc" d="M6890 3916 c-88 -23 -168 -91 -213 -181 -28 -56 -30 -54 -47 50 -6 39 -13 82 -16 98 l-6 27 -134 0 c-74 0 -134 -2 -134 -5 0 -3 68 -410 150 -905 83 -496 150 -905 150 -910 0 -6 58 -10 141 -10 l141 0 -6 28 c-14 65 -105 636 -103 639 2 1 19 -18 37 -43 105 -139 290 -210 478 -184 281 39 424 267 391 625 -43 465 -332 787 -703 784 -45 0 -101 -6 -126 -13z m265 -260 c80 -36 156 -118 204 -219 61 -126 75 -192 76 -342 0 -115 -3 -136 -23 -180 -28 -60 -73 -109 -127 -138 -32 -18 -57 -22 -130 -22 -82 0 -97 3 -156 32 -150 74 -250 245 -279 477 -12 99 0 203 31 277 23 52 82 113 127 130 81 32 188 26 277 -15z"/>
 <path fill="#cccccc" d="M8306 3915 c-140 -36 -265 -133 -320 -249 -98 -207 -65 -538 80 -786 53 -92 200 -236 289 -282 196 -102 452 -111 618 -20 104 56 180 157 212 280 19 77 21 228 4 352 l-12 90 -487 0 -487 0 -6 62 c-19 215 76 326 289 336 152 7 271 -43 343 -143 18 -25 35 -45 39 -45 36 0 242 46 242 54 0 26 -65 121 -118 174 -71 70 -162 124 -267 159 -67 22 -102 26 -220 29 -100 3 -157 -1 -199 -11z m632 -903 c-8 -142 -84 -235 -214 -262 -177 -37 -400 105 -468 298 l-15 42 351 0 351 0 -5 -78z"/>
 <path fill="#cccccc" d="M3583 3901 c-115 -39 -174 -106 -194 -218 -10 -53 -5 -96 60 -491 39 -238 71 -435 71 -437 0 -3 -44 -5 -98 -5 l-98 0 17 -107 c10 -60 18 -109 19 -110 0 -2 45 -3 99 -3 l99 0 11 -62 c6 -35 18 -109 27 -165 l17 -103 139 0 c76 0 138 1 138 3 0 1 -11 67 -25 147 -14 80 -25 153 -25 163 0 15 13 17 135 17 122 0 135 2 135 18 0 18 -16 127 -26 175 l-6 27 -139 0 c-136 0 -139 0 -144 23 -15 68 -125 751 -125 781 0 90 39 121 151 119 l77 -1 6 46 c3 26 7 76 8 112 l3 65 -45 12 c-71 18 -226 15 -287 -6z"/>
 </g>

</svg>