<!DOCTYPE svg PUBLIC "-//W3C//DTD SVG 20010904//EN" "http://www.w3.org/TR/2001/REC-SVG-20010904/DTD/svg10.dtd">
<svg version="1.0" xmlns="http://www.w3.org/2000/svg" width="1200px" height="1200px" viewBox="0 0 12000 12000" preserveAspectRatio="xMidYMid meet">
<g id="layer101" fill="#e06c75" stroke="none">
<path d="M8810 11320 l0 -110 205 0 205 0 0 -460 0 -460 -200 0 -200 0 0 -110 0 -110 345 0 345 0 0 570 0 570 185 0 185 0 0 110 0 110 -535 0 -535 0 0 -110z"/>
<path d="M9236 9770 c-34 -11 -82 -54 -102 -92 -19 -37 -18 -132 3 -175 32 -68 131 -107 228 -89 43 8 103 59 121 103 17 39 18 111 3 150 -33 87 -149 134 -253 103z"/>
<path d="M10190 2423 c1 -5 108 -165 239 -358 l239 -349 -214 -317 c-118 -175 -214 -320 -214 -323 0 -4 77 -5 171 -4 l171 3 132 227 c72 125 134 228 137 228 3 0 66 -103 140 -230 l134 -230 162 0 c90 0 163 2 163 5 0 3 -93 143 -207 312 -113 168 -206 311 -206 318 0 6 106 169 236 363 131 193 237 353 237 356 0 3 -78 6 -174 6 l-173 0 -159 -265 c-87 -146 -162 -265 -165 -265 -4 0 -78 119 -164 265 l-158 265 -163 0 c-90 0 -164 -3 -164 -7z"/>
</g>
<g id="layer102" fill="#d19a66" stroke="none">
<path d="M4150 8031 l0 -961 129 0 c142 0 141 0 141 65 0 18 3 45 6 61 l5 29 55 -53 c34 -33 84 -67 132 -90 77 -37 78 -37 207 -37 160 0 215 19 304 101 108 99 162 243 181 475 42 515 -163 849 -520 849 -111 0 -225 -40 -307 -106 l-33 -27 0 310 0 309 -117 13 c-65 6 -133 15 -150 18 l-33 5 0 -961z m688 175 c68 -35 122 -124 147 -244 19 -89 19 -345 0 -434 -36 -174 -115 -257 -241 -258 -89 0 -141 25 -221 106 l-73 74 0 318 0 319 40 46 c46 52 108 85 177 96 57 8 130 -2 171 -23z"/>
<path d="M10894 8456 c-122 -28 -226 -101 -277 -194 -54 -99 -57 -131 -57 -569 l0 -403 -150 0 -150 0 0 -110 0 -110 150 0 150 0 0 -149 0 -149 28 -6 c15 -3 70 -10 122 -16 52 -6 107 -12 123 -15 l27 -4 0 169 0 170 225 0 c256 0 233 -10 215 96 -6 32 -13 74 -16 92 l-5 32 -209 0 -210 0 0 398 c0 393 0 398 23 442 17 35 34 51 72 70 71 35 189 34 295 -3 41 -15 79 -28 83 -29 4 -2 31 41 60 94 51 95 52 97 32 112 -24 19 -110 52 -185 72 -79 22 -271 27 -346 10z"/>
<path d="M5710 8330 l0 -110 95 0 95 0 0 -465 0 -465 -95 0 -95 0 0 -110 0 -110 212 2 213 3 24 148 24 148 36 -66 c100 -183 235 -265 435 -265 77 0 197 18 211 32 2 2 -7 109 -20 238 -14 129 -25 243 -25 253 0 15 -12 17 -110 17 l-110 0 0 -135 0 -135 -25 0 c-96 0 -229 106 -298 237 -74 142 -77 158 -77 430 l0 243 140 0 140 0 0 110 0 110 -385 0 -385 0 0 -110z"/>
<path d="M8760 7755 l0 -685 129 0 129 0 6 40 c3 22 9 58 12 80 l6 40 55 -49 c106 -94 230 -141 377 -141 172 0 274 52 333 170 18 36 37 94 43 130 6 37 10 286 10 583 l0 517 -149 0 -150 0 -3 -517 -3 -518 -25 -50 c-33 -66 -71 -87 -156 -87 -89 0 -169 40 -252 126 l-62 64 0 491 0 491 -150 0 -150 0 0 -685z"/>
<path d="M7696 6770 c-34 -11 -82 -54 -102 -92 -19 -37 -18 -132 3 -175 32 -68 131 -107 228 -89 43 8 103 59 121 103 17 39 18 111 3 150 -33 87 -149 134 -253 103z"/>
<path d="M10190 2424 c0 -3 66 -103 147 -222 82 -119 189 -278 239 -352 l91 -135 -213 -317 c-118 -174 -214 -319 -214 -323 0 -3 77 -4 171 -3 l171 3 84 145 c46 80 105 182 131 228 26 45 50 82 53 82 7 0 22 -25 181 -297 l94 -163 163 0 c90 0 162 4 160 8 -1 5 -88 135 -193 290 -104 155 -198 294 -207 310 l-18 28 240 358 c132 196 240 359 240 361 0 3 -78 5 -173 5 l-173 0 -159 -265 c-88 -146 -163 -265 -167 -265 -3 0 -77 119 -163 265 l-158 265 -163 0 c-90 0 -164 -3 -164 -6z"/>
</g>
<g id="layer103" fill="#98c379" stroke="none">
<path d="M1740 11230 l0 -200 -370 0 -370 0 0 -104 0 -103 254 -597 c140 -329 256 -600 259 -602 9 -9 247 88 247 100 0 7 -97 243 -216 526 -119 283 -218 521 -221 528 -4 9 41 12 206 12 194 0 211 -1 211 -17 0 -10 7 -101 15 -203 8 -102 15 -200 15 -217 l0 -33 125 0 125 0 0 235 0 235 105 0 105 0 0 120 0 120 -105 0 -105 0 0 200 0 200 -140 0 -140 0 0 -200z"/>
<path d="M4150 8031 l0 -961 129 0 c142 0 141 0 141 65 0 18 3 46 6 62 l6 30 52 -52 c32 -32 81 -66 131 -91 l79 -39 130 0 c162 0 216 18 307 102 105 98 160 245 180 483 31 378 -89 690 -304 791 -177 82 -389 59 -517 -58 l-40 -35 0 314 0 314 -122 13 c-68 7 -135 15 -150 18 l-28 6 0 -962z m687 176 c112 -59 163 -201 163 -460 0 -344 -88 -490 -286 -474 -80 6 -132 36 -207 117 l-57 61 0 320 0 319 37 41 c20 22 55 51 78 64 73 43 201 49 272 12z"/>
<path d="M1365 8456 c-91 -18 -191 -55 -260 -97 -67 -40 -158 -125 -153 -143 3 -14 161 -156 173 -156 5 0 29 20 55 44 96 89 220 132 364 123 208 -11 327 -141 314 -343 -6 -92 -42 -170 -96 -207 -67 -47 -118 -60 -260 -65 l-134 -4 7 -47 c3 -25 11 -74 16 -107 l11 -61 101 -5 c115 -5 179 -27 235 -81 93 -89 107 -242 31 -346 -65 -87 -215 -129 -352 -97 -82 19 -123 40 -206 102 l-63 47 -73 -79 c-41 -43 -74 -85 -75 -91 0 -18 103 -97 180 -138 117 -61 204 -80 370 -79 131 0 153 3 225 27 93 32 197 99 244 157 18 22 44 66 59 98 24 51 27 69 27 167 0 103 -2 114 -32 177 -41 88 -113 159 -201 202 l-69 32 73 23 c128 40 228 133 269 251 40 115 27 283 -31 400 -64 128 -216 243 -379 286 -83 21 -282 27 -370 10z"/>
<path d="M10920 8460 c-160 -28 -275 -118 -332 -257 -23 -57 -23 -64 -26 -485 l-3 -428 -149 0 -150 0 0 -110 0 -110 150 0 150 0 0 -149 0 -149 28 -6 c15 -3 72 -10 127 -16 55 -6 110 -13 123 -15 l22 -5 0 170 0 170 226 0 227 0 -7 48 c-3 26 -11 75 -17 110 l-11 62 -209 0 -209 0 0 398 c0 393 0 398 23 442 15 32 35 52 67 70 40 22 57 24 140 24 77 -1 108 -6 165 -28 39 -15 73 -28 78 -29 4 -1 31 42 60 95 61 114 64 108 -68 157 -128 46 -282 62 -405 41z"/>
<path d="M5710 8330 l0 -110 95 0 95 0 0 -465 0 -465 -95 0 -95 0 0 -110 0 -110 212 2 213 3 24 148 24 148 28 -50 c103 -189 220 -269 408 -279 87 -4 211 9 238 26 8 5 5 69 -13 242 -13 129 -23 243 -24 253 0 15 -12 17 -110 17 l-110 0 0 -135 0 -135 -25 0 c-13 0 -50 10 -82 22 -107 40 -216 176 -274 345 -17 50 -19 84 -19 300 l0 243 140 0 141 0 -3 108 -3 107 -382 3 -383 2 0 -110z"/>
<path d="M7270 8325 l0 -115 205 0 205 0 0 -460 0 -460 -200 0 -200 0 0 -110 0 -110 345 0 345 0 0 570 0 570 185 0 185 0 0 115 0 115 -535 0 -535 0 0 -115z"/>
<path d="M8767 8433 c-4 -3 -7 -312 -7 -685 l0 -678 129 0 129 0 6 40 c3 22 9 58 12 81 l6 41 32 -30 c64 -61 151 -113 233 -138 72 -23 96 -26 191 -23 98 4 114 7 174 37 102 50 156 130 177 262 7 40 11 268 11 583 l0 517 -149 0 -150 0 -3 -517 -3 -518 -25 -50 c-33 -66 -71 -87 -156 -87 -89 0 -169 40 -252 126 l-62 64 0 491 0 491 -143 0 c-79 0 -147 -3 -150 -7z"/>
<path d="M7696 6770 c-34 -11 -82 -54 -102 -92 -22 -42 -18 -136 9 -182 42 -74 162 -109 250 -72 103 43 141 191 72 282 -48 63 -143 89 -229 64z"/>
<path d="M10767 5456 c-112 -40 -179 -167 -148 -282 46 -172 271 -233 395 -108 67 68 87 183 47 269 -50 108 -180 161 -294 121z"/>
<path d="M1010 5323 l0 -106 248 -251 c267 -271 361 -377 440 -499 161 -247 141 -499 -46 -584 -26 -12 -65 -17 -132 -17 -129 0 -185 23 -282 113 l-73 68 -92 -71 c-51 -39 -93 -76 -93 -82 0 -24 157 -160 225 -196 96 -50 170 -68 305 -74 393 -20 636 214 599 577 -15 148 -84 294 -222 466 -70 87 -284 306 -434 446 l-83 77 394 0 395 0 -5 33 c-3 17 -11 70 -17 117 l-12 85 -558 3 -557 2 0 -107z"/>
<path d="M10767 4546 c-97 -35 -152 -116 -152 -226 1 -137 95 -230 234 -230 86 0 155 38 199 110 27 47 32 63 32 120 0 81 -23 134 -79 181 -66 57 -153 74 -234 45z"/>
<path d="M9401 2730 c-383 -343 -547 -668 -568 -1125 -12 -279 36 -523 148 -748 88 -177 221 -344 414 -517 l99 -89 65 58 c119 106 120 81 -12 226 -193 213 -278 346 -341 535 -45 135 -66 282 -66 457 0 430 107 688 422 1018 l101 106 -79 80 c-43 43 -82 79 -86 79 -5 0 -48 -36 -97 -80z"/>
<path d="M1130 2315 l0 -115 220 0 220 0 0 -615 c0 -338 -2 -615 -5 -615 -3 0 -85 49 -183 109 -98 61 -184 112 -192 116 -11 3 -33 -25 -77 -97 -34 -57 -59 -106 -55 -110 4 -3 125 -79 269 -167 l262 -161 135 0 136 0 0 770 0 770 175 0 175 0 0 115 0 115 -540 0 -540 0 0 -115z"/>
</g>
<g id="layer104" fill="#61afef" stroke="none">
<path d="M7655 5463 c-179 -24 -337 -136 -416 -298 -89 -183 -111 -427 -58 -655 55 -235 213 -406 420 -455 84 -19 267 -20 344 0 255 65 404 268 435 593 25 268 -44 517 -184 657 -129 128 -327 186 -541 158z m242 -254 c121 -59 173 -198 173 -464 0 -248 -53 -383 -175 -448 -32 -17 -57 -22 -125 -22 -96 0 -141 18 -196 77 -77 81 -107 196 -106 408 1 220 41 348 134 423 73 59 203 70 295 26z"/>
<path d="M6000 4915 l0 -525 -155 0 -155 0 0 -110 0 -110 154 0 154 0 4 -177 c3 -169 4 -181 30 -236 55 -117 168 -205 313 -242 78 -20 296 -20 390 0 86 18 195 54 195 64 0 7 -79 193 -85 199 -1 1 -36 -7 -76 -18 -174 -50 -359 -34 -425 35 -42 45 -54 100 -54 249 l0 126 228 0 228 0 -15 110 -15 110 -213 0 -213 0 0 525 0 525 -145 0 -145 0 0 -525z"/>
<path d="M8780 5330 l0 -110 95 0 95 0 0 -465 0 -465 -95 0 -95 0 0 -110 0 -110 212 2 213 3 24 148 24 148 36 -66 c100 -183 235 -265 435 -265 77 0 197 18 211 32 2 2 -7 109 -20 238 -14 129 -25 243 -25 253 0 15 -12 17 -110 17 l-110 0 0 -135 0 -135 -25 0 c-96 0 -229 106 -298 237 -74 142 -77 158 -77 430 l0 243 140 0 140 0 0 110 0 110 -385 0 -385 0 0 -110z"/>
</g>
<g id="layer105" fill="#c678dd" stroke="none">
<path d="M4471 2459 c-116 -23 -229 -105 -291 -213 -139 -243 -145 -678 -12 -931 45 -84 134 -182 199 -217 85 -46 154 -61 272 -56 93 3 114 7 171 34 36 17 83 46 103 64 l37 32 0 -336 0 -336 28 0 c28 0 183 17 240 26 l32 5 0 954 0 955 -134 0 -134 0 -7 -75 c-4 -41 -9 -75 -11 -75 -1 0 -25 21 -52 48 -112 109 -274 154 -441 121z m266 -234 c64 -19 121 -61 173 -126 l40 -51 0 -318 0 -318 -45 -47 c-112 -115 -281 -129 -390 -33 -94 82 -130 223 -122 468 5 172 23 248 76 332 59 93 155 127 268 93z"/>
<path d="M6185 2464 c-11 -2 -45 -9 -75 -15 -30 -6 -92 -28 -137 -50 -192 -92 -308 -281 -332 -542 -39 -405 141 -721 454 -802 78 -20 253 -20 330 0 189 50 335 204 390 410 20 76 33 230 27 318 l-4 67 -450 0 -449 0 6 38 c39 234 158 345 370 345 102 -1 180 -22 282 -79 34 -19 63 -34 66 -34 3 0 33 39 67 87 l63 87 -34 29 c-46 39 -180 101 -259 122 -63 16 -274 29 -315 19z m369 -866 c-29 -217 -112 -322 -265 -335 -182 -17 -312 107 -343 330 l-7 47 311 0 310 0 -6 -42z"/>
<path d="M7530 1915 l0 -525 -155 0 -155 0 0 -110 0 -110 154 0 154 0 4 -177 c3 -169 4 -181 30 -236 55 -117 168 -205 313 -242 78 -20 296 -20 390 0 86 18 195 54 195 64 0 7 -79 193 -85 199 -1 1 -36 -7 -76 -18 -174 -50 -359 -34 -425 35 -42 45 -54 100 -54 249 l0 126 228 0 228 0 -15 110 -15 110 -213 0 -213 0 0 525 0 525 -145 0 -145 0 0 -525z"/>
</g>
<g id="layer106" fill="#cccccc" stroke="none">
<path d="M1740 11230 l0 -200 -370 0 -370 0 0 -105 c0 -103 1 -106 49 -217 27 -62 106 -248 176 -413 223 -527 287 -675 292 -675 22 0 243 96 243 106 0 7 -16 50 -36 96 -20 45 -73 173 -119 283 -67 159 -257 614 -282 673 -4 9 41 12 206 12 194 0 211 -1 211 -17 0 -10 7 -101 15 -203 8 -102 15 -200 15 -217 l0 -33 125 0 125 0 0 235 0 235 105 0 105 0 0 120 0 120 -105 0 -105 0 0 200 0 200 -140 0 -140 0 0 -200z"/>
<path d="M6230 11010 l0 -260 -255 0 -255 0 0 -120 0 -120 255 0 255 0 0 -260 0 -260 130 0 130 0 0 260 0 260 510 0 510 0 0 -260 0 -260 130 0 130 0 0 260 0 260 255 0 255 0 0 120 0 120 -255 0 -255 0 0 260 0 260 -130 0 -130 0 0 -260 0 -260 -510 0 -510 0 0 260 0 260 -130 0 -130 0 0 -260z"/>
<path d="M1365 8456 c-137 -28 -216 -63 -321 -142 -71 -54 -106 -98 -88 -112 5 -5 43 -38 85 -75 42 -37 79 -67 83 -67 3 0 25 18 48 40 53 50 159 105 235 121 34 6 94 9 142 6 207 -13 322 -144 308 -349 -13 -188 -126 -268 -379 -268 -80 0 -108 -3 -108 -12 0 -7 7 -53 15 -103 8 -49 15 -93 15 -96 0 -4 46 -8 103 -11 116 -5 179 -27 235 -81 93 -89 107 -242 31 -346 -39 -52 -132 -99 -214 -107 -117 -12 -229 24 -343 111 l-63 47 -74 -78 c-41 -44 -74 -85 -75 -91 0 -18 104 -97 180 -138 117 -61 204 -80 370 -79 131 0 153 3 225 27 92 32 195 98 243 157 18 22 45 66 60 97 24 52 27 69 27 168 0 103 -2 114 -32 177 -41 88 -113 159 -201 202 l-69 32 74 23 c125 39 230 137 269 253 23 66 25 230 5 303 -50 178 -212 327 -416 381 -84 22 -282 27 -370 10z"/>
<path d="M10769 5456 c-113 -40 -181 -168 -150 -282 46 -172 271 -233 395 -108 67 68 87 183 47 269 -50 107 -180 161 -292 121z"/>
<path d="M1010 5323 l1 -108 257 -260 c265 -267 378 -398 451 -520 113 -189 115 -408 4 -505 -58 -51 -98 -64 -203 -64 -129 0 -185 23 -282 113 l-73 68 -92 -71 c-51 -39 -93 -76 -93 -82 0 -6 35 -45 79 -86 130 -125 253 -175 451 -184 301 -15 515 116 587 360 9 31 15 90 15 151 -1 180 -71 343 -234 542 -64 79 -276 296 -425 436 l-83 77 394 0 395 0 -5 33 c-3 17 -11 70 -17 117 l-12 85 -558 3 -557 2 0 -107z"/>
<path d="M10767 4546 c-85 -31 -140 -101 -153 -197 -19 -136 91 -258 231 -258 138 -1 235 95 235 230 0 168 -157 280 -313 225z"/>
<path d="M9394 2722 c-377 -338 -540 -663 -561 -1117 -18 -403 98 -758 337 -1033 112 -130 302 -312 324 -312 6 0 47 34 91 74 l80 75 -51 53 c-362 378 -474 631 -474 1064 0 433 105 687 421 1018 l102 107 -79 80 c-43 43 -82 79 -86 79 -3 0 -51 -40 -104 -88z"/>
<path d="M1130 2315 l0 -115 220 0 220 0 0 -615 c0 -338 -2 -615 -5 -615 -3 0 -85 49 -183 109 -98 61 -184 112 -192 116 -13 5 -62 -65 -127 -181 -15 -26 -46 -3 304 -218 l222 -136 135 0 136 0 0 770 0 770 175 0 175 0 0 115 0 115 -540 0 -540 0 0 -115z"/>
</g>


</svg>