<?xml version="1.0" encoding="utf-8"?>
<!DOCTYPE svg PUBLIC "-//W3C//DTD SVG 1.1//EN" "http://www.w3.org/Graphics/SVG/1.1/DTD/svg11.dtd">
<svg version="1.1" xmlns="http://www.w3.org/2000/svg" xmlns:xlink="http://www.w3.org/1999/xlink" x="0px" y="0px" width="1200px" height="1200px" viewBox="0 0 12000 12000" preserveAspectRatio="xMidYMid meet">
<g id="layer101">
 <path fill="#4f4f4f" d="M2430 5735 c0 -1026 1 -1865 3 -1865 12 0 3189 1858 3189 1865 0 8 -3028 1779 -3154 1846 l-38 19 0 -1865z"/>
 <path fill="#4f4f4f" d="M7100 6440 l0 -80 1550 0 1550 0 0 80 0 80 -1550 0 -1550 0 0 -80z"/>
 <path fill="#4f4f4f" d="M7100 5380 l0 -80 1310 0 1310 0 0 80 0 80 -1310 0 -1310 0 0 -80z"/>
 <path fill="#4f4f4f" d="M7100 4320 l0 -80 2050 0 2050 0 0 80 0 80 -2050 0 -2050 0 0 -80z"/>
 </g>
<g id="layer102">
 <path fill="#cccccc" d="M7100 6440 l0 -80 1550 0 1550 0 0 80 0 80 -1550 0 -1550 0 0 -80z"/>
 <path fill="#cccccc" d="M7100 5380 l0 -80 1310 0 1310 0 0 80 0 80 -1310 0 -1310 0 0 -80z"/>
 <path fill="#cccccc" d="M7100 4320 l0 -80 2050 0 2050 0 0 80 0 80 -2050 0 -2050 0 0 -80z"/>
 </g>

</svg>