<?xml version="1.0" encoding="utf-8"?>
<!DOCTYPE svg PUBLIC "-//W3C//DTD SVG 1.1//EN" "http://www.w3.org/Graphics/SVG/1.1/DTD/svg11.dtd">
<svg version="1.1" xmlns="http://www.w3.org/2000/svg" xmlns:xlink="http://www.w3.org/1999/xlink" x="0px" y="0px" width="1200px" height="1200px" viewBox="0 0 12000 12000" preserveAspectRatio="xMidYMid meet">
<g id="layer101">
 <path fill="#4f4f4f" d="M2660 9940 l0 -80 2140 0 2140 0 0 80 0 80 -2140 0 -2140 0 0 -80z"/>
 <path fill="#4f4f4f" d="M2660 8880 l0 -80 3160 0 3160 0 0 80 0 80 -3160 0 -3160 0 0 -80z"/>
 <path fill="#4f4f4f" d="M2660 7820 l0 -80 3730 0 3730 0 0 80 0 80 -3730 0 -3730 0 0 -80z"/>
 <path fill="#4f4f4f" d="M1790 6160 l0 -80 4600 0 4600 0 0 80 0 80 -4600 0 -4600 0 0 -80z"/>
 <path fill="#4f4f4f" d="M2660 4340 l0 -80 2140 0 2140 0 0 80 0 80 -2140 0 -2140 0 0 -80z"/>
 <path fill="#4f4f4f" d="M2660 3280 l0 -80 3730 0 3730 0 0 80 0 80 -3730 0 -3730 0 0 -80z"/>
 <path fill="#4f4f4f" d="M2660 2220 l0 -80 3160 0 3160 0 0 80 0 80 -3160 0 -3160 0 0 -80z"/>
 </g>
<g id="layer102">
 <path fill="#cccccc" d="M2660 9940 l0 -80 2140 0 2140 0 0 80 0 80 -2140 0 -2140 0 0 -80z"/>
 <path fill="#cccccc" d="M2660 8880 l0 -80 3160 0 3160 0 0 80 0 80 -3160 0 -3160 0 0 -80z"/>
 <path fill="#cccccc" d="M2660 7820 l0 -80 3730 0 3730 0 0 80 0 80 -3730 0 -3730 0 0 -80z"/>
 <path fill="#cccccc" d="M2660 4340 l0 -80 2140 0 2140 0 0 80 0 80 -2140 0 -2140 0 0 -80z"/>
 <path fill="#cccccc" d="M2660 3280 l0 -80 3730 0 3730 0 0 80 0 80 -3730 0 -3730 0 0 -80z"/>
 <path fill="#cccccc" d="M2660 2220 l0 -80 3160 0 3160 0 0 80 0 80 -3160 0 -3160 0 0 -80z"/>
 </g>

</svg>