<?xml version="1.0" encoding="utf-8"?>
<!DOCTYPE svg PUBLIC "-//W3C//DTD SVG 1.1//EN" "http://www.w3.org/Graphics/SVG/1.1/DTD/svg11.dtd">
<svg version="1.1" xmlns="http://www.w3.org/2000/svg" xmlns:xlink="http://www.w3.org/1999/xlink" x="0px" y="0px" width="1200px" height="1200px" viewBox="0 0 12000 12000" preserveAspectRatio="xMidYMid meet">
<g id="layer101">
 <path fill="#4f4f4f" d="M2660 9540 l0 -80 2140 0 2140 0 0 80 0 80 -2140 0 -2140 0 0 -80z"/>
 <path fill="#4f4f4f" d="M2660 8480 l0 -80 3160 0 3160 0 0 80 0 80 -3160 0 -3160 0 0 -80z"/>
 <path fill="#4f4f4f" d="M2660 7420 l0 -80 3730 0 3730 0 0 80 0 80 -3730 0 -3730 0 0 -80z"/>
 <path fill="#4f4f4f" d="M3150 4480 l0 -1520 235 0 235 0 0 660 0 660 750 0 750 0 0 -660 0 -660 230 0 230 0 0 1520 0 1520 -230 0 -230 0 0 -660 0 -660 -750 0 -750 0 0 660 0 660 -235 0 -235 0 0 -1520z"/>
 <path fill="#4f4f4f" d="M6200 5830 l0 -171 528 -547 c560 -580 675 -702 771 -822 203 -254 258 -490 161 -698 -57 -121 -188 -223 -332 -257 -81 -19 -238 -19 -311 0 -141 37 -258 128 -316 247 -32 64 -61 176 -61 236 l0 32 -225 0 c-173 0 -225 -3 -225 -12 0 -43 23 -202 36 -253 40 -156 151 -330 277 -435 88 -74 259 -161 374 -190 416 -104 857 17 1089 299 61 73 135 216 159 306 22 81 31 284 16 371 -35 206 -143 401 -366 662 -50 59 -280 304 -511 545 -230 242 -420 443 -422 448 -2 5 273 9 677 9 l681 0 0 200 0 200 -1000 0 -1000 0 0 -170z"/>
 </g>
<g id="layer102">
 <path fill="#cccccc" d="M2660 9540 l0 -80 2140 0 2140 0 0 80 0 80 -2140 0 -2140 0 0 -80z"/>
 <path fill="#cccccc" d="M2660 8480 l0 -80 3160 0 3160 0 0 80 0 80 -3160 0 -3160 0 0 -80z"/>
 <path fill="#cccccc" d="M2660 7420 l0 -80 3730 0 3730 0 0 80 0 80 -3730 0 -3730 0 0 -80z"/>
 </g>

</svg>