<!DOCTYPE svg PUBLIC "-//W3C//DTD SVG 20010904//EN" "http://www.w3.org/TR/2001/REC-SVG-20010904/DTD/svg10.dtd">
<svg version="1.0" xmlns="http://www.w3.org/2000/svg" width="1200px" height="1200px" viewBox="0 0 12000 12000" preserveAspectRatio="xMidYMid meet">
<g id="layer101" fill="#4f4f4f" stroke="none">
<path d="M3150 4480 l0 -1520 235 0 235 0 0 660 0 660 750 0 750 0 0 -660 0 -660 230 0 230 0 0 1520 0 1520 -230 0 -230 0 0 -660 0 -660 -750 0 -750 0 0 660 0 660 -235 0 -235 0 0 -1520z"/>
<path d="M6888 4715 l-3 -1285 -368 240 c-202 132 -370 240 -372 240 -3 0 -5 -101 -5 -224 l0 -224 384 -251 384 -251 226 0 226 0 0 1520 0 1520 -235 0 -235 0 -2 -1285z"/>
</g>
<g id="layer102" fill="#cccccc" stroke="none">
<path d="M2660 9540 l0 -80 2140 0 2140 0 0 80 0 80 -2140 0 -2140 0 0 -80z"/>
<path d="M2660 8480 l0 -80 3160 0 3160 0 0 80 0 80 -3160 0 -3160 0 0 -80z"/>
<path d="M2660 7420 l0 -80 3730 0 3730 0 0 80 0 80 -3730 0 -3730 0 0 -80z"/>
</g>


</svg>