<?xml version="1.0" encoding="utf-8"?>
<!DOCTYPE svg PUBLIC "-//W3C//DTD SVG 1.1//EN" "http://www.w3.org/Graphics/SVG/1.1/DTD/svg11.dtd">
<svg version="1.1" xmlns="http://www.w3.org/2000/svg" xmlns:xlink="http://www.w3.org/1999/xlink" x="0px" y="0px" width="1200px" height="1200px" viewBox="0 0 12000 12000" preserveAspectRatio="xMidYMid meet">
<g id="layer101">
 <path fill="#4f4f4f" d="M2660 9540 l0 -80 2140 0 2140 0 0 80 0 80 -2140 0 -2140 0 0 -80z"/>
 <path fill="#4f4f4f" d="M2660 8480 l0 -80 3160 0 3160 0 0 80 0 80 -3160 0 -3160 0 0 -80z"/>
 <path fill="#4f4f4f" d="M2660 7420 l0 -80 3730 0 3730 0 0 80 0 80 -3730 0 -3730 0 0 -80z"/>
 <path fill="#4f4f4f" d="M7103 6040 c-51 -5 -130 -18 -176 -29 -436 -103 -696 -368 -742 -753 l-7 -58 241 0 241 0 0 28 c0 75 69 204 144 268 60 52 188 110 285 130 124 25 299 16 406 -20 101 -34 156 -66 223 -130 236 -222 170 -601 -131 -752 -123 -62 -195 -76 -434 -81 l-213 -5 0 -188 0 -188 193 -5 c133 -3 210 -10 252 -21 178 -49 306 -158 355 -302 44 -126 35 -248 -25 -371 -56 -113 -158 -192 -296 -228 -72 -20 -249 -19 -324 0 -210 54 -355 190 -388 364 l-12 61 -222 0 -223 0 0 -48 c0 -72 34 -196 79 -287 182 -369 669 -569 1167 -480 353 64 613 288 700 606 13 47 18 101 19 204 0 119 -4 151 -23 215 -35 111 -86 196 -166 275 -80 79 -153 125 -250 159 -37 13 -67 27 -67 31 0 5 41 18 90 31 253 64 441 241 507 479 10 35 18 114 21 190 4 109 2 144 -16 220 -83 346 -382 596 -802 669 -114 20 -292 27 -406 16z"/>
 <path fill="#4f4f4f" d="M3150 4485 l0 -1525 235 0 235 0 0 660 0 660 750 0 750 0 0 -660 0 -660 230 0 230 0 0 1525 0 1525 -230 0 -230 0 0 -665 0 -665 -750 0 -750 0 0 665 0 665 -235 0 -235 0 0 -1525z"/>
 </g>
<g id="layer102">
 <path fill="#cccccc" d="M2660 9540 l0 -80 2140 0 2140 0 0 80 0 80 -2140 0 -2140 0 0 -80z"/>
 <path fill="#cccccc" d="M2660 8480 l0 -80 3160 0 3160 0 0 80 0 80 -3160 0 -3160 0 0 -80z"/>
 <path fill="#cccccc" d="M2660 7420 l0 -80 3730 0 3730 0 0 80 0 80 -3730 0 -3730 0 0 -80z"/>
 </g>

</svg>