<?xml version="1.0" encoding="utf-8"?>
<!-- Generator: Adobe Illustrator 24.2.1, SVG Export Plug-In . SVG Version: 6.00 Build 0)  -->
<svg version="1.1" id="Layer_1" xmlns="http://www.w3.org/2000/svg" xmlns:xlink="http://www.w3.org/1999/xlink" x="0px" y="0px"
	 viewBox="0 0 360 360" style="enable-background:new 0 0 360 360;" xml:space="preserve">
<path d="M135.3,105H33l-3,37.6h4c2.4-27,4.9-32.6,30.2-32.6c3,0,7.4,0,9.1,0.3c3.5,0.7,3.5,2.5,3.5,6.4v88.1c0,5.7,0,8.1-17.6,8.1
	h-6.7v5.2c6.9-0.5,23.8-0.5,31.6-0.5s25,0,31.9,0.5V213h-6.7c-17.6,0-17.6-2.4-17.6-8.1v-88.1c0-3.4,0-5.7,3-6.4
	c1.8-0.3,6.4-0.3,9.6-0.3c25.2,0,27.7,5.5,30.1,32.6h4.2L135.3,105z"/>
<path d="M225.2,212.8H221c-4.2,25.7-8.1,37.9-36.8,37.9h-22.2c-7.9,0-8.2-1.2-8.2-6.7v-44.7h14.9c16.3,0,18.1,5.4,18.1,19.6h4.2
	v-44.3H187c0,14.3-1.8,19.5-18.1,19.5h-14.9v-40.1c0-5.5,0.3-6.7,8.2-6.7h21.5c25.7,0,30.1,9.2,32.7,32.6h4.2l-4.7-37.6h-94v5h3.9
	c12.9,0,13.3,1.8,13.3,7.9v87.6c0,6-0.3,7.9-13.3,7.9h-3.9v5.2h96.4L225.2,212.8z"/>
<path d="M275.8,153.6l23-33.6c3.5-5.4,9.2-10.7,24.2-10.9v-5h-40v5c6.7,0.2,10.4,3.9,10.4,7.7c0,1.7-0.3,2-1.5,3.9l-19.1,28.2
	l-21.5-32.2c-0.3-0.5-1.2-1.8-1.2-2.5c0-2,3.7-4.9,10.7-5v-5c-5.7,0.5-18,0.5-24.3,0.5c-5.2,0-15.6-0.2-21.8-0.5v5h3.2
	c9.2,0,12.4,1.2,15.6,5.9l30.7,46.5l-27.4,40.5c-2.4,3.4-7.4,11.1-24.2,11.1v5.2h40V213c-7.7-0.2-10.6-4.7-10.6-7.7
	c0-1.5,0.5-2.2,1.7-4l23.7-35.1l26.5,40c0.3,0.7,0.8,1.3,0.8,1.8c0,2-3.7,4.9-10.9,5v5.2c5.9-0.5,18.1-0.5,24.3-0.5
	c7.1,0,14.8,0.2,21.8,0.5V213h-3.2c-8.7,0-12.3-0.8-15.8-6L275.8,153.6z"/>
</svg>
