<?xml version="1.0" encoding="utf-8"?>
<!DOCTYPE svg PUBLIC "-//W3C//DTD SVG 1.1//EN" "http://www.w3.org/Graphics/SVG/1.1/DTD/svg11.dtd">
<svg version="1.1" xmlns="http://www.w3.org/2000/svg" xmlns:xlink="http://www.w3.org/1999/xlink" x="0px" y="0px" width="1200px" height="1200px" viewBox="0 0 12000 12000" preserveAspectRatio="xMidYMid meet">
<g id="layer101">
 <path fill="#4f4f4f" d="M7270 7553 c-343 -20 -593 -190 -682 -463 -26 -82 -36 -291 -18 -383 40 -208 188 -360 430 -445 120 -42 257 -67 550 -102 277 -33 372 -55 414 -96 34 -35 40 -60 33 -148 -18 -241 -196 -374 -472 -352 -202 15 -375 117 -449 265 -15 29 -32 51 -39 48 -7 -2 -99 -24 -206 -48 -113 -25 -195 -48 -198 -56 -3 -7 9 -42 25 -78 122 -259 359 -429 682 -486 117 -21 374 -16 490 8 194 42 330 112 438 228 67 71 132 190 157 290 29 111 35 277 35 1028 l0 747 -225 0 -224 0 -3 -157 -3 -158 -29 49 c-58 100 -182 198 -316 253 -103 41 -259 64 -390 56z m298 -379 c208 -42 369 -185 417 -369 10 -42 15 -109 15 -227 0 -92 -2 -168 -4 -168 -2 0 -23 7 -47 16 -67 23 -205 50 -412 79 -277 38 -383 77 -469 173 -94 105 -87 293 16 395 100 100 292 140 484 101z"/>
 <path fill="#4f4f4f" d="M3550 7501 c0 -8 1053 -2940 1085 -3023 7 -17 29 -18 274 -18 l266 0 544 1513 c300 831 546 1518 549 1525 3 9 -50 12 -245 12 l-249 0 -139 -405 -140 -405 -586 0 -586 0 -140 403 -139 402 -247 3 c-155 1 -247 -1 -247 -7z m1760 -1333 c-152 -446 -391 -1132 -395 -1137 -3 -2 -8 -1 -11 2 -6 5 -444 1264 -444 1274 0 2 202 3 450 3 l449 0 -49 -142z"/>
 </g>
</svg>