<?xml version="1.0" encoding="utf-8"?>
<!DOCTYPE svg PUBLIC "-//W3C//DTD SVG 1.1//EN" "http://www.w3.org/Graphics/SVG/1.1/DTD/svg11.dtd">
<svg version="1.1" xmlns="http://www.w3.org/2000/svg" xmlns:xlink="http://www.w3.org/1999/xlink" x="0px" y="0px" width="1200px" height="1200px" viewBox="0 0 12000 12000" preserveAspectRatio="xMidYMid meet">
<g id="layer101">
 <path fill="#4aa9e2" d="M2295 7580 c-81 -26 -127 -67 -167 -148 l-33 -67 0 -1635 0 -1635 29 -63 c32 -69 77 -114 145 -146 l46 -21 1624 -3 c1455 -2 1631 -1 1679 13 100 30 159 84 199 185 17 43 18 131 18 1660 0 1495 -1 1619 -17 1670 -26 84 -68 134 -146 172 l-67 33 -1625 2 c-1577 2 -1627 1 -1685 -17z"/>
 <path fill="#4aa9e2" d="M7100 6440 l0 -80 1550 0 1550 0 0 80 0 80 -1550 0 -1550 0 0 -80z"/>
 <path fill="#4aa9e2" d="M7100 5380 l0 -80 1310 0 1310 0 0 80 0 80 -1310 0 -1310 0 0 -80z"/>
 <path fill="#4aa9e2" d="M7100 4320 l0 -80 2050 0 2050 0 0 80 0 80 -2050 0 -2050 0 0 -80z"/>
 </g>
<g id="layer102">
 <path fill="#cccccc" d="M3202 6271 c-233 -229 -423 -421 -422 -426 0 -6 53 -63 118 -128 l117 -117 300 300 c165 165 304 300 310 300 6 0 300 -290 655 -645 l645 -645 122 122 123 123 -567 568 c-313 313 -660 657 -773 767 l-205 198 -423 -417z"/>
 <path fill="#cccccc" d="M7100 6440 l0 -80 1550 0 1550 0 0 80 0 80 -1550 0 -1550 0 0 -80z"/>
 <path fill="#cccccc" d="M7100 5380 l0 -80 1310 0 1310 0 0 80 0 80 -1310 0 -1310 0 0 -80z"/>
 <path fill="#cccccc" d="M7100 4320 l0 -80 2050 0 2050 0 0 80 0 80 -2050 0 -2050 0 0 -80z"/>
 </g>
<g id="layer103">
 <path fill="#ffffff" d="M3203 6267 l-421 -422 113 -120 114 -120 143 140 c79 77 217 213 308 302 l165 162 650 -644 650 -644 118 117 c64 64 116 119 114 122 -1 3 -346 348 -767 767 l-765 763 -422 -423z"/>
 </g>

</svg>